<svg width="102" height="102" viewBox="0 0 102 102" fill="none" xmlns="http://www.w3.org/2000/svg">
<g id="fluent-emoji-flat:black-cat">
<g id="Group">
<path id="Vector" d="M47.4937 95.6281H54.2831C55.0481 95.6281 55.6219 94.895 55.4306 94.1938L49.4063 68.8531H39.8438L45.9319 94.4169C46.1231 95.1181 46.7606 95.6281 47.4937 95.6281ZM66.2363 95.6281H59.4469C58.6819 95.6281 58.1081 94.895 58.2994 94.1938L64.3238 68.8531H73.8863L67.7981 94.4169C67.6069 95.1181 66.9694 95.6281 66.2363 95.6281Z" fill="#533566"/>
<path id="Vector_2" d="M68.2444 10.1362C69.9337 9.75371 71.7187 9.53059 73.5356 9.56246C85.5844 9.68996 95.4656 19.5075 95.625 31.5562C95.6717 34.7919 95.0136 37.999 93.6964 40.9548C92.3792 43.9106 90.4345 46.5443 87.9973 48.6731C88.8069 50.8916 89.25 53.2854 89.25 55.7844V70.2556C89.25 72.2638 88.8356 74.2719 88.0069 76.1206L79.9744 94.895C79.815 95.3413 79.3688 95.6281 78.8906 95.6281H71.9419C71.0812 95.6281 70.5075 94.7356 70.89 93.9706L75.0338 84.3125C75.4163 83.4519 75.225 82.4638 74.5556 81.7944L66.8737 74.1125C66.3568 73.5998 65.6575 73.3131 64.9294 73.3156H41.4694V94.4169C41.4694 95.0863 40.9275 95.6281 40.2581 95.6281H33.0863C32.4169 95.6281 31.875 95.0863 31.875 94.4488V73.2519C28.4003 72.9115 25.1765 71.2901 22.8315 68.7035C20.4865 66.1169 19.1879 62.7502 19.1887 59.2588V54.1906C15.7903 54.1906 12.5311 52.8406 10.1281 50.4376C7.72502 48.0345 6.375 44.7753 6.375 41.3769V40.6756C6.375 39.3369 7.45875 38.2531 8.7975 38.2531C9.59437 38.2531 10.2956 37.6794 10.455 36.8825C11.6662 30.6669 16.3519 24.6425 22.3125 23.2719V14.6338C22.3125 13.4225 23.8106 12.8806 24.6075 13.7731L37.5169 28.1488C39.9713 30.9219 41.4694 34.5556 41.4694 38.54V42.7794C41.4694 44.2138 42.9675 45.17 44.2744 44.5325L59.4787 37.1375C62.2837 35.7669 65.4075 35.0656 68.5312 35.0656C75.1102 35.0656 80.9721 38.132 84.7684 42.9133C87.4384 40.1492 89.0188 36.5129 89.2181 32.675C89.6962 23.5237 82.365 15.9375 73.3125 15.9375C72.1013 15.9375 70.89 16.065 69.7425 16.3518C69.1011 16.4935 68.4318 16.4349 67.8247 16.1841C67.2177 15.9333 66.7022 15.5023 66.3478 14.9493C66.3383 14.9398 66.3319 14.9334 66.3319 14.9175C66.0513 14.4956 65.8774 14.0119 65.8252 13.5079C65.7731 13.004 65.8441 12.4949 66.0323 12.0245C66.2204 11.5541 66.5201 11.1364 66.9054 10.8075C67.2908 10.4786 67.7503 10.2482 68.2444 10.1362Z" fill="#635994"/>
<path id="Vector_3" d="M19.125 36.8826C19.125 35.8626 19.8262 35.0625 20.7188 35.0625C21.6113 35.0625 22.3125 35.9008 22.3125 36.8826V39.6174C22.3125 40.6374 21.6113 41.4375 20.7188 41.4375C19.8262 41.4375 19.125 40.6374 19.125 39.6174V36.8826ZM10.965 38.2532C11.73 38.2532 12.1444 39.1138 11.6981 39.7194L7.17188 45.8076C6.66188 44.4369 6.375 42.9388 6.375 41.3769V40.6757C6.375 39.3369 7.45875 38.2532 8.7975 38.2532H10.965Z" fill="#212121"/>
</g>
</g>
</svg>
